<svg fill="none" height="1032" viewBox="0 0 634 1032" width="634" xmlns="http://www.w3.org/2000/svg">
  <path clip-rule="evenodd"
        d="M466.997 832.308L460.57 832.321L117.933 1027.14L3.87954 818.839L267.696 668.839L266.784 82.6889L432 82.3685L432 -8.65485e-06L626 -1.74846e-07L626 83L624.834 83L625.861 743L629 743L629 848.209L630 850L629 850.58L629 852.656L625.418 852.656L514.312 917.063L466.997 832.308Z"
        fill="#415657"
        fill-rule="evenodd"/>
  <line stroke="#FF9900" stroke-width="8" x1="463.98" x2="259.98" y1="81.9989" y2="84.0087"/>
  <line stroke="#FF9900" stroke-width="8" x1="263.956" x2="266.94" y1="85.9526" y2="342.953"/>
  <line stroke="#FF9900" stroke-width="8" x1="266.941" x2="267" y1="448.999" y2="670.999"/>
  <line stroke="#FF9900" stroke-width="8" x1="354.875" x2="175.815" y1="626.533" y2="721.533"/>
  <path d="M28.5 805.5L2.49994 820" stroke="#FF9900" stroke-width="8"/>
  <line stroke="#FF9900" stroke-width="8" x1="5.51535" x2="119.515" y1="817.092" y2="1027.09"/>
  <path d="M115.5 1028L464.5 829" stroke="#FF9900" stroke-width="8"/>
  <line stroke="#FF9900" stroke-width="8" x1="457.546" x2="515.486" y1="816.039" y2="919.039"/>
  <line stroke="#FF9900" stroke-width="8" x1="557.992" x2="510.992" y1="890.468" y2="917.468"/>
  <line stroke="#FF9900" stroke-width="8" x1="608.095" x2="632.095" y1="862.483" y2="849.483"/>
  <path d="M621.94 77.9576L630 853" stroke="#FF9900" stroke-width="8"/>
  <line stroke="#FF9900" stroke-width="8" x1="626" x2="555.94" y1="82" y2="81.9991"/>
  <line stroke="#FF9900" stroke-width="8" x1="351.517" x2="422.517" y1="624.094" y2="755.094"/>
  <line stroke="#FF9900" stroke-width="8" x1="525.94" x2="526.94" y1="435.937" y2="499.937"/>
  <line stroke="#FF9900" stroke-width="8" x1="528.034" x2="336.954" y1="496.929" y2="498.07"/>
  <path d="M526.94 499.999L528 577" stroke="#FF9900" stroke-width="8"/>
  <line stroke="#FF9900" stroke-width="8" x1="532.069" x2="357.069" y1="631.999" y2="635.017"/>
  <path d="M287 498L263 498" stroke="#FF9900" stroke-width="8"/>
  <line stroke="#FF9900" stroke-width="8" x1="418.108" x2="495.048" y1="748.509" y2="705.508"/>
  <line stroke="#FF9900" stroke-width="8" x1="492.94" x2="493" y1="708.981" y2="695.982"/>
  <line stroke="#FF9900" stroke-width="8" x1="353" x2="353" y1="494" y2="529"/>
  <line stroke="#FF9900" stroke-width="8" x1="353" x2="353" y1="611" y2="629"/>
  <line stroke="#FF9900" stroke-width="8" x1="468.039" x2="265.039" y1="318" y2="320"/>
  <line stroke="white" stroke-width="4" x1="353" x2="353" y1="535" y2="605"/>
  <path d="M267 349L267 396L267 443" stroke="white" stroke-width="4"/>
  <line stroke="white" stroke-width="4" x1="169.985" x2="33.9854" y1="724.74" y2="801.74"/>
  <line stroke="#0075FF" stroke-width="4" x1="493" x2="493" y1="691" y2="642"/>
  <path d="M550 82L470 82" stroke="#0075FF" stroke-width="4"/>
  <path d="M425.5 761L454 810.5" stroke="#0075FF" stroke-width="4"/>
  <line stroke="#0075FF" stroke-width="4" x1="332" x2="292" y1="498" y2="498"/>
  <path d="M528 582L528 623" stroke="#0075FF" stroke-width="4"/>
  <path d="M604 865.5L563 888.5" stroke="#0075FF" stroke-width="4"/>
</svg>
