<?xml version="1.0" encoding="iso-8859-1"?>
<!-- Uploaded to: SVG Repo, www.svgrepo.com, Generator: SVG Repo Mixer Tools -->
<svg height="800px" id="Layer_1" version="1.1" viewBox="0 0 392.507 392.507" width="800px"
     xml:space="preserve" xmlns="http://www.w3.org/2000/svg">
<polygon points="69.069,169.272 69.069,357.781 323.388,357.781 323.388,169.272 196.228,82.839 " style="fill:#FFFFFF;"/>
  <polygon points="90.855,335.995 90.855,180.843 196.228,109.215 301.602,180.843 301.602,335.995 "
           style="fill:#56ACE0;"/>
  <path d="M257.966,227.066c0-15.774-12.8-28.638-28.638-28.638c-9.632,0-18.618,4.848-23.984,12.994
	c-4.655,6.788-14.481,6.335-18.23,0c-5.301-8.145-14.287-12.994-23.984-12.994c-15.774,0-28.638,12.8-28.638,28.638
	c0,19.846,35.297,57.665,61.673,80.743C222.604,284.342,257.966,246.395,257.966,227.066z" style="fill:#FFC10D;"/>
  <g>
	<path d="M229.327,176.577c-12.347,0-24.048,4.461-33.099,12.347c-9.051-7.887-20.687-12.347-33.099-12.347
		c-27.798,0-50.489,22.626-50.489,50.489c0,39.046,68.719,97.034,76.606,103.564c4.073,3.297,9.762,3.232,13.964-0.065
		c12.735-10.731,76.477-66.198,76.477-103.499C279.752,199.268,257.125,176.577,229.327,176.577z M134.491,227.066
		c0-15.774,12.8-28.638,28.638-28.638c9.632,0,18.618,4.848,23.984,12.994c3.814,6.335,13.576,6.788,18.23,0
		c5.301-8.145,14.287-12.994,23.984-12.994c15.774,0,28.638,12.8,28.638,28.638c0,19.329-35.362,57.341-61.737,80.743
		C169.853,284.73,134.491,246.912,134.491,227.066z" style="fill:#194F82;"/>
    <path d="M340.39,154.532L202.305,60.666c-3.685-2.521-8.598-2.521-12.283,0L52.067,154.532
		c-3.038,2.004-4.784,5.43-4.784,9.05v205.188c0,6.012,4.848,10.925,10.925,10.925h276.17c6.012,0,10.925-4.848,10.925-10.925
		V163.518C345.239,159.898,343.428,156.536,340.39,154.532z M323.388,357.781H69.069V169.272l127.16-86.432l127.16,86.368V357.781z"
          style="fill:#194F82;"
    />
    <path d="M387.711,140.698L202.305,14.702c-3.685-2.521-8.598-2.521-12.283,0L106.176,71.72V33.579
		c0-6.012-4.848-10.925-10.925-10.925H47.542c-6.012,0-10.925,4.848-10.925,10.925v85.398L4.746,140.569
		c-4.913,3.426-6.271,10.214-2.844,15.127s10.149,6.271,15.127,2.844l179.2-121.6l179.265,121.794
		c4.913,3.556,11.636,1.875,15.127-2.844C393.982,150.783,392.754,144.059,387.711,140.698z M84.325,86.589l-25.859,17.648V44.504
		h25.859V86.589z" style="fill:#194F82;"/>
</g>
  <polygon points="84.325,86.589 84.325,44.439 58.467,44.439 58.467,104.173 " style="fill:#FFC10D;"/>
</svg>
