<svg height="600" version="1.2" viewBox="0 0 600 600" width="600" xmlns="http://www.w3.org/2000/svg">
  <style>.a {
    fill: #fff
  }

  .b {
    fill: #56ace0
  }

  .c {
    fill: #ffc10d
  }

  .d {
    fill: #194f82
  }</style>
  <path class="a" d="m172.1 272.3v188.5h254.3v-188.5l-127.2-86.5z"/>
  <path class="b" d="m193.9 439v-155.2l105.3-71.6 105.4 71.6v155.2z"/>
  <path class="c"
        d="m361 330.1c0-15.8-12.8-28.7-28.7-28.7-9.6 0-18.6 4.9-24 13-4.6 6.8-14.4 6.4-18.2 0-5.3-8.1-14.3-13-24-13-15.7 0-28.6 12.8-28.6 28.7 0 19.8 35.3 57.6 61.7 80.7 26.4-23.5 61.8-61.4 61.8-80.7z"/>
  <path class="d"
        d="m382.7 330.1c0 37.3-63.8 92.7-76.5 103.5-4.2 3.3-9.9 3.3-14 0-7.8-6.5-76.6-64.5-76.6-103.5 0-27.9 22.7-50.5 50.5-50.5 12.4 0 24.1 4.4 33.1 12.3 9.1-7.9 20.8-12.3 33.1-12.3 27.8 0 50.5 22.7 50.4 50.5zm-83.5 80.7c26.4-23.4 61.8-61.4 61.8-80.7 0-15.9-12.9-28.7-28.7-28.7-9.7 0-18.7 4.9-24 13-4.6 6.8-14.4 6.4-18.2 0-5.4-8.1-14.3-13-24-13-15.8 0-28.6 12.9-28.6 28.7 0 19.8 35.4 57.6 61.7 80.7z"
        fill-rule="evenodd"/>
  <path class="d"
        d="m448.3 266.5v205.3c0 6-4.9 10.9-10.9 10.9h-276.2c-6.1 0-10.9-4.9-10.9-10.9v-205.2c0-3.6 1.7-7.1 4.8-9.1l137.9-93.8c3.7-2.6 8.6-2.6 12.3 0l138.1 93.8c3 2 4.8 5.4 4.9 9zm-21.9 5.7l-127.2-86.4-127.1 86.5v188.5h254.3c0 0 0-188.6 0-188.6z"
        fill-rule="evenodd"/>
  <path class="d"
        d="m493.6 258.9c-3.5 4.7-10.2 6.4-15.1 2.8l-179.3-121.8-179.2 121.6c-4.9 3.5-11.7 2.1-15.1-2.8-3.4-4.9-2.1-11.7 2.8-15.1l31.9-21.6v-85.4c0-6.1 4.9-10.9 10.9-10.9h47.8c6 0 10.9 4.9 10.9 10.9v38.1l83.8-57c3.7-2.5 8.6-2.5 12.3 0l185.4 126c5.1 3.4 6.3 10.1 2.9 15.2zm-306.3-111.4h-25.8v59.7l25.8-17.6z"
        fill-rule="evenodd"/>
  <path class="c" d="m187.3 189.6v-42.2h-25.8v59.8z"/>
</svg>
